<?xml version="1.0" encoding="UTF-8" standalone="no"?>
<svg
   height="128px"
   viewBox="0 0 128 128"
   width="128px"
   version="1.1"
   id="svg15"
   xmlns:xlink="http://www.w3.org/1999/xlink"
   xmlns="http://www.w3.org/2000/svg"
   xmlns:svg="http://www.w3.org/2000/svg">
  <defs
     id="defs15">
    <linearGradient
       id="linearGradient80"
       gradientTransform="matrix(1 0 0 0.998042 0 -171.425273)"
       gradientUnits="userSpaceOnUse"
       x1="8.263458"
       x2="119.986328"
       y1="237.670837"
       y2="237.670837">
      <stop
         offset="0"
         stop-color="#49245a"
         id="stop78" />
      <stop
         offset="0.49393299"
         stop-color="#a669c0"
         id="stop79"
         style="stop-color:#7063bd;stop-opacity:1;" />
      <stop
         offset="1"
         stop-color="#49245a"
         id="stop80" />
    </linearGradient>
    <linearGradient
       id="linearGradient75"
       gradientUnits="userSpaceOnUse"
       x1="75.76295695311"
       x2="75.76295695311"
       y1="102.52655864063"
       y2="52.31583587227">
      <stop
         offset="0"
         stop-color="#b4b3af"
         id="stop72"
         style="stop-color:#c5c4c1;stop-opacity:1;" />
      <stop
         offset="0.5"
         stop-color="#f6f5f4"
         id="stop73" />
      <stop
         offset="1"
         stop-color="#b5b4b0"
         id="stop75"
         style="stop-color:#c5c4c1;stop-opacity:1;" />
    </linearGradient>
    <linearGradient
       id="swatch57">
      <stop
         style="stop-color:#e8e8e8;stop-opacity:0.4475393;"
         offset="0"
         id="stop57" />
    </linearGradient>
    <linearGradient
       xlink:href="#linearGradient75"
       id="linearGradient72"
       x1="63.998047"
       y1="15.774071"
       x2="63.998047"
       y2="106.77407"
       gradientUnits="userSpaceOnUse" />
    <linearGradient
       xlink:href="#linearGradient80"
       id="linearGradient78"
       x1="66.078049"
       y1="15.774058"
       x2="66.078049"
       y2="106.77406"
       gradientUnits="userSpaceOnUse" />
  </defs>
  <filter
     id="a"
     height="1"
     width="1"
     x="0"
     y="0">
    <feColorMatrix
       color-interpolation-filters="sRGB"
       values="0 0 0 0 1 0 0 0 0 1 0 0 0 0 1 0 0 0 1 0"
       id="feColorMatrix1" />
  </filter>
  <linearGradient
     id="b"
     gradientTransform="matrix(1 0 0 0.998042 0 -171.425273)"
     gradientUnits="userSpaceOnUse"
     x1="8.263458"
     x2="119.986328"
     y1="237.670837"
     y2="237.670837">
    <stop
       offset="0"
       stop-color="#49245a"
       id="stop1" />
    <stop
       offset="0.493933"
       stop-color="#a669c0"
       id="stop2" />
    <stop
       offset="1"
       stop-color="#49245a"
       id="stop3" />
  </linearGradient>
  <mask
     id="c">
    <g
       filter="url(#a)"
       id="g3">
      <rect
         fill-opacity="0.649512"
         height="153.6"
         width="153.6"
         x="-12.8"
         y="-12.8"
         id="rect3" />
    </g>
  </mask>
  <linearGradient
     id="d"
     gradientUnits="userSpaceOnUse"
     x1="75.76295695311"
     x2="75.76295695311"
     y1="102.52655864063"
     y2="52.31583587227">
    <stop
       offset="0"
       stop-color="#b4b3af"
       id="stop4" />
    <stop
       offset="0.480688"
       stop-color="#f6f5f4"
       id="stop5" />
    <stop
       offset="0.749887"
       stop-color="#e2e1df"
       id="stop6" />
    <stop
       offset="1"
       stop-color="#b5b4b0"
       id="stop7" />
  </linearGradient>
  <clipPath
     id="e">
    <rect
       height="152"
       width="192"
       id="rect7" />
  </clipPath>
  <path
     d="m 119.984375 65.78125 c 0 30.789062 -25.007813 55.75 -55.859375 55.75 s -55.863281 -24.960938 -55.863281 -55.75 c 0 -30.792969 25.011719 -55.753906 55.863281 -55.753906 s 55.859375 24.960937 55.859375 55.753906 z m 0 0"
     fill="url(#b)"
     id="path7" />
  <path
     d="m 119.984375 61.273438 c 0 30.789062 -25.007813 55.75 -55.859375 55.75 s -55.863281 -24.960938 -55.863281 -55.75 c 0 -30.792969 25.011719 -55.753907 55.863281 -55.753907 s 55.859375 24.960938 55.859375 55.753907 z m 0 0"
     fill="#813d9c"
     id="path8" />
  <path
     d="m 8.339844 64.191406 c -1.082032 -20.585937 9.308594 -40.089844 27.015625 -50.707031 c 17.703125 -10.617187 39.835937 -10.617187 57.539062 0 c 17.707031 10.617187 28.097657 30.121094 27.015625 50.707031"
     fill="#562f74"
     id="path9" />
  <path
     d="m 64.125 5.519531 c 30.851562 0 55.863281 24.960938 55.863281 55.753907 h -55.863281 z m 0 0"
     fill="#a560c1"
     id="path10" />
  <path
     d="m 8.261719 61.273438 c 0 -30.792969 25.011719 -55.753907 55.863281 -55.753907 v 55.753907 z m 0 0"
     fill="#613583"
     id="path11" />
  <path
     d="m 90.546875,67.804688 -40.972656,23.65625 c -1.429688,0.824218 -3.1875,0.824218 -4.617188,0 -1.429687,-0.828126 -2.308593,-2.351563 -2.308593,-4 v -47.3125 c 0,-1.652344 0.878906,-3.175782 2.308593,-4 1.429688,-0.824219 3.1875,-0.824219 4.617188,0 l 40.972656,23.65625 c 1.429687,0.824218 2.3125,2.347656 2.3125,4 0,1.648437 -0.882813,3.171874 -2.3125,4 z m 0,0"
     fill="#92918e"
     id="path12"
     style="display:none" />
  <path
     d="m 90.558594,65.421875 -40.972656,23.65625 c -1.429688,0.824219 -3.191407,0.824219 -4.617188,0 -1.429688,-0.824219 -2.3125,-2.351563 -2.3125,-4 v -47.3125 c 0,-1.652344 0.882812,-3.175781 2.3125,-4 1.425781,-0.824219 3.1875,-0.824219 4.617188,0 l 40.972656,23.65625 c 1.429687,0.824219 2.308594,2.347656 2.308594,4 0,1.648437 -0.878907,3.175781 -2.308594,4 z m 0,0"
     fill="#f6f5f4"
     id="path13"
     style="display:none" />
  <path
     d="M 98.558594,81.421875 57.585938,105.07813 c -1.429688,0.82421 -3.191407,0.82421 -4.617188,0 -1.429688,-0.82422 -2.3125,-2.35157 -2.3125,-4 V 53.765625 c 0,-1.652344 0.882812,-3.175781 2.3125,-4 1.425781,-0.824219 3.1875,-0.824219 4.617188,0 l 40.972656,23.65625 c 1.429687,0.824219 2.308596,2.347656 2.308596,4 0,1.648437 -0.878909,3.175781 -2.308596,4 z m 0,0"
     fill="url(#d)"
     id="path14"
     transform="translate(-8,-16)"
     style="display:none" />
  <g
     id="g67">
    <path
       id="path75"
       style="fill:url(#linearGradient78);fill-opacity:1;stroke-width:7;stroke-linecap:round;stroke-linejoin:bevel"
       d="M 38.927656,25.603516 A 3.5,3.5 0 0 0 36.83,26.417969 c -10.301158,8.643697 -16.251953,21.408262 -16.251953,34.855469 0,13.447207 5.950795,26.211771 16.251953,34.855468 A 3.5,3.5 0 0 0 41.761641,95.697266 3.5,3.5 0 0 0 41.33,90.765625 C 32.610425,83.449033 27.578047,72.656035 27.578047,61.273438 27.578047,49.890842 32.610425,39.097842 41.33,31.78125 a 3.5,3.5 0 0 0 0.431641,-4.931641 3.5,3.5 0 0 0 -2.376953,-1.236328 3.5,3.5 0 0 0 -0.457032,-0.0098 z m 54.298828,0 a 3.5,3.5 0 0 0 -0.457031,0.0098 3.5,3.5 0 0 0 -2.375,1.236328 3.5,3.5 0 0 0 0.429688,4.931641 c 8.719574,7.316592 13.753909,18.109592 13.753909,29.492188 0,11.382597 -5.034335,22.175595 -13.753909,29.492187 a 3.5,3.5 0 0 0 -0.429688,4.931641 3.5,3.5 0 0 0 4.929688,0.43164 C 105.6253,87.485209 111.57805,74.720643 111.57805,61.273438 c 0,-13.447205 -5.95275,-26.211772 -16.253909,-34.855469 A 3.5,3.5 0 0 0 93.226484,25.603516 Z M 51.527266,40.617188 a 3.5,3.5 0 0 0 -2.097657,0.816406 c -5.862986,4.919629 -9.251953,12.186259 -9.251953,19.839844 0,7.653586 3.388967,14.920214 9.251953,19.839843 a 3.5,3.5 0 0 0 4.929688,-0.43164 3.5,3.5 0 0 0 -0.429688,-4.929688 c -4.281404,-3.592524 -6.751953,-8.889539 -6.751953,-14.478515 0,-5.588975 2.470549,-10.885992 6.751953,-14.478516 a 3.5,3.5 0 0 0 0.429688,-4.929688 3.5,3.5 0 0 0 -2.375,-1.238281 3.5,3.5 0 0 0 -0.457031,-0.0098 z m 29.101562,0 a 3.5,3.5 0 0 0 -0.457031,0.0098 3.5,3.5 0 0 0 -2.376953,1.238281 3.5,3.5 0 0 0 0.43164,4.929688 c 4.281404,3.592524 6.751954,8.889541 6.751954,14.478516 0,5.588976 -2.47055,10.885991 -6.751954,14.478515 a 3.5,3.5 0 0 0 -0.43164,4.929688 3.5,3.5 0 0 0 4.93164,0.43164 c 5.862987,-4.919629 9.251954,-12.186257 9.251954,-19.839843 0,-7.653585 -3.388967,-14.920215 -9.251954,-19.839844 A 3.5,3.5 0 0 0 80.628828,40.617188 Z M 66.08,52.712891 A 8.3199997,8.3199997 0 0 0 57.759688,61.033203 8.3199997,8.3199997 0 0 0 66.08,69.353516 8.3199997,8.3199997 0 0 0 74.400312,61.033203 8.3199997,8.3199997 0 0 0 66.08,52.712891 Z" />
    <path
       id="path69"
       style="fill:url(#linearGradient72);stroke-width:7;stroke-linecap:round;stroke-linejoin:bevel"
       d="M 36.847656 25.603516 A 3.5 3.5 0 0 0 34.75 26.417969 C 24.448842 35.061666 18.498047 47.826231 18.498047 61.273438 C 18.498047 74.720645 24.448842 87.485209 34.75 96.128906 A 3.5 3.5 0 0 0 39.681641 95.697266 A 3.5 3.5 0 0 0 39.25 90.765625 C 30.530425 83.449033 25.498047 72.656035 25.498047 61.273438 C 25.498047 49.890842 30.530425 39.097842 39.25 31.78125 A 3.5 3.5 0 0 0 39.681641 26.849609 A 3.5 3.5 0 0 0 37.304688 25.613281 A 3.5 3.5 0 0 0 36.847656 25.603516 z M 91.146484 25.603516 A 3.5 3.5 0 0 0 90.689453 25.613281 A 3.5 3.5 0 0 0 88.314453 26.849609 A 3.5 3.5 0 0 0 88.744141 31.78125 C 97.463715 39.097842 102.49805 49.890842 102.49805 61.273438 C 102.49805 72.656035 97.463715 83.449033 88.744141 90.765625 A 3.5 3.5 0 0 0 88.314453 95.697266 A 3.5 3.5 0 0 0 93.244141 96.128906 C 103.5453 87.485209 109.49805 74.720643 109.49805 61.273438 C 109.49805 47.826233 103.5453 35.061666 93.244141 26.417969 A 3.5 3.5 0 0 0 91.146484 25.603516 z M 49.447266 40.617188 A 3.5 3.5 0 0 0 47.349609 41.433594 C 41.486623 46.353223 38.097656 53.619853 38.097656 61.273438 C 38.097656 68.927024 41.486623 76.193652 47.349609 81.113281 A 3.5 3.5 0 0 0 52.279297 80.681641 A 3.5 3.5 0 0 0 51.849609 75.751953 C 47.568205 72.159429 45.097656 66.862414 45.097656 61.273438 C 45.097656 55.684463 47.568205 50.387446 51.849609 46.794922 A 3.5 3.5 0 0 0 52.279297 41.865234 A 3.5 3.5 0 0 0 49.904297 40.626953 A 3.5 3.5 0 0 0 49.447266 40.617188 z M 78.548828 40.617188 A 3.5 3.5 0 0 0 78.091797 40.626953 A 3.5 3.5 0 0 0 75.714844 41.865234 A 3.5 3.5 0 0 0 76.146484 46.794922 C 80.427888 50.387446 82.898438 55.684463 82.898438 61.273438 C 82.898438 66.862414 80.427888 72.159429 76.146484 75.751953 A 3.5 3.5 0 0 0 75.714844 80.681641 A 3.5 3.5 0 0 0 80.646484 81.113281 C 86.509471 76.193652 89.898438 68.927024 89.898438 61.273438 C 89.898438 53.619853 86.509471 46.353223 80.646484 41.433594 A 3.5 3.5 0 0 0 78.548828 40.617188 z M 64 52.712891 A 8.3199997 8.3199997 0 0 0 55.679688 61.033203 A 8.3199997 8.3199997 0 0 0 64 69.353516 A 8.3199997 8.3199997 0 0 0 72.320312 61.033203 A 8.3199997 8.3199997 0 0 0 64 52.712891 z " />
  </g>
</svg>
